<svg width="24" height="24" viewBox="0 0 24 24" fill="none" xmlns="http://www.w3.org/2000/svg">
<path d="M23.63 4.66671C23.168 3.87271 22.318 3.33337 21.3333 3.33337H12V4.66671H23.63ZM0 16.6667H24V18H0V16.6667ZM12 11.3334H24V12.6667H12V11.3334ZM12 8.66671H24V10H12V8.66671ZM0 14H24V15.3334H0V14ZM2.66667 20.6667H21.3333C22.318 20.6667 23.168 20.1274 23.63 19.3334H0.37C0.832 20.1274 1.682 20.6667 2.66667 20.6667ZM12 6.00004H24V7.33337H12V6.00004Z" fill="#B22334"/>
<path d="M0.0453333 18.4526C0.0566667 18.5146 0.0693333 18.5766 0.0846667 18.6373C0.102 18.7046 0.123333 18.7693 0.146 18.8346C0.205333 19.0073 0.277333 19.174 0.368 19.33L0.37 19.3333H23.63L23.6313 19.3306C23.7213 19.1753 23.7933 19.0086 23.8527 18.8366C23.8753 18.7706 23.8973 18.7046 23.9147 18.636C23.93 18.576 23.9427 18.5146 23.954 18.4526C23.9813 18.306 24 18.1553 24 18H0C0 18.1553 0.0186667 18.3053 0.0453333 18.4526ZM0 15.3333H24V16.6666H0V15.3333ZM0 12.6666V14H24V12.6666H12H0ZM12 9.99996H24V11.3333H12V9.99996ZM12 7.33329H24V8.66663H12V7.33329ZM0 5.99996C0 5.84463 0.02 5.69529 0.0453333 5.54729C0.0186667 5.69463 0 5.84463 0 5.99996ZM0.37 4.66663L0.368 4.66996L0.37 4.66663ZM0.0853333 5.36263C0.102 5.29463 0.125333 5.22996 0.146667 5.16463C0.124 5.22996 0.102667 5.29529 0.0853333 5.36263ZM12 5.99996H24C24 5.84463 23.9813 5.69396 23.954 5.54663C23.9427 5.48529 23.9307 5.42396 23.9147 5.36396C23.8967 5.29529 23.8753 5.22863 23.852 5.16263C23.7927 4.99063 23.7207 4.82463 23.6307 4.66929C23.6313 4.66863 23.6307 4.66729 23.63 4.66663H12V5.99996Z" fill="#EEEEEE"/>
<path d="M12 3.33337H2.66667C1.194 3.33337 0 4.52737 0 6.00004V12.6667H12V3.33337Z" fill="#3C3B6E"/>
<path d="M1.33398 5.15063L1.74598 5.44996L1.58865 5.93329L1.99998 5.63463L2.41198 5.93329L2.25465 5.44996L2.66665 5.15063H2.15732L1.99998 4.66663L1.84332 5.15063H1.33398ZM2.66732 6.48396L3.07932 6.78329L2.92198 7.26663L3.33332 6.96796L3.74532 7.26663L3.58798 6.78329L3.99998 6.48396H3.49065L3.33332 5.99996L3.17665 6.48396H2.66732ZM5.33399 6.48396L5.74599 6.78329L5.58865 7.26663L5.99998 6.96796L6.41198 7.26663L6.25465 6.78329L6.66665 6.48396H6.15732L5.99998 5.99996L5.84332 6.48396H5.33399ZM8.00065 6.48396L8.41265 6.78329L8.25532 7.26663L8.66665 6.96796L9.07865 7.26663L8.92132 6.78329L9.33332 6.48396H8.82399L8.66665 5.99996L8.50998 6.48396H8.00065ZM2.66732 9.15063L3.07932 9.44996L2.92198 9.93329L3.33332 9.63463L3.74532 9.93329L3.58798 9.44996L3.99998 9.15063H3.49065L3.33332 8.66663L3.17665 9.15063H2.66732ZM5.33399 9.15063L5.74599 9.44996L5.58865 9.93329L5.99998 9.63463L6.41198 9.93329L6.25465 9.44996L6.66665 9.15063H6.15732L5.99998 8.66663L5.84332 9.15063H5.33399ZM8.00065 9.15063L8.41265 9.44996L8.25532 9.93329L8.66665 9.63463L9.07865 9.93329L8.92132 9.44996L9.33332 9.15063H8.82399L8.66665 8.66663L8.50998 9.15063H8.00065ZM4.00065 5.15063L4.41265 5.44996L4.25532 5.93329L4.66665 5.63463L5.07865 5.93329L4.92132 5.44996L5.33332 5.15063H4.82398L4.66665 4.66663L4.50998 5.15063H4.00065ZM6.66732 5.15063L7.07932 5.44996L6.92199 5.93329L7.33332 5.63463L7.74532 5.93329L7.58799 5.44996L7.99999 5.15063H7.49065L7.33332 4.66663L7.17665 5.15063H6.66732ZM9.33399 5.15063L9.74599 5.44996L9.58865 5.93329L9.99999 5.63463L10.412 5.93329L10.2547 5.44996L10.6667 5.15063H10.1573L9.99999 4.66663L9.84332 5.15063H9.33399ZM1.33398 7.81729L1.74598 8.11663L1.58865 8.59996L1.99998 8.30129L2.41198 8.59996L2.25465 8.11663L2.66665 7.81729H2.15732L1.99998 7.33329L1.84332 7.81729H1.33398ZM4.25532 8.59996L4.66665 8.30129L5.07865 8.59996L4.92132 8.11663L5.33332 7.81729H4.82398L4.66665 7.33329L4.50998 7.81729H4.00065L4.41265 8.11663L4.25532 8.59996ZM6.66732 7.81729L7.07932 8.11663L6.92199 8.59996L7.33332 8.30129L7.74532 8.59996L7.58799 8.11663L7.99999 7.81729H7.49065L7.33332 7.33329L7.17665 7.81729H6.66732ZM9.33399 7.81729L9.74599 8.11663L9.58865 8.59996L9.99999 8.30129L10.412 8.59996L10.2547 8.11663L10.6667 7.81729H10.1573L9.99999 7.33329L9.84332 7.81729H9.33399ZM1.33398 10.484L1.74598 10.7833L1.58865 11.2666L1.99998 10.968L2.41198 11.2666L2.25465 10.7833L2.66665 10.484H2.15732L1.99998 9.99996L1.84332 10.484H1.33398ZM4.25532 11.2666L4.66665 10.968L5.07865 11.2666L4.92132 10.7833L5.33332 10.484H4.82398L4.66665 9.99996L4.50998 10.484H4.00065L4.41265 10.7833L4.25532 11.2666ZM6.66732 10.484L7.07932 10.7833L6.92199 11.2666L7.33332 10.968L7.74532 11.2666L7.58799 10.7833L7.99999 10.484H7.49065L7.33332 9.99996L7.17665 10.484H6.66732ZM9.33399 10.484L9.74599 10.7833L9.58865 11.2666L9.99999 10.968L10.412 11.2666L10.2547 10.7833L10.6667 10.484H10.1573L9.99999 9.99996L9.84332 10.484H9.33399Z" fill="white"/>
</svg>
