<svg width="100" height="112" viewBox="0 0 100 112" fill="none" xmlns="http://www.w3.org/2000/svg">
<g opacity="0.1">
<path d="M109.631 45.0493L111.951 34.5497L99.6722 111.397L30.2699 100.308C10.7908 97.1954 -2.47698 78.8814 0.635433 59.4023L4.75604 33.6135C8.60473 9.52646 31.2511 -6.87998 55.3381 -3.03129L75.9259 0.258274L65.3917 3.2036C63.8943 3.62308 62.5315 4.4242 61.4368 5.52854C60.342 6.63287 59.5527 8.00258 59.1463 9.50355L42.288 71.9331L103.681 51.6405C105.159 51.1518 106.485 50.2873 107.528 49.1318C108.571 47.9763 109.296 46.5694 109.631 45.0493Z" fill="#FFF5F8"/>
<path d="M85.8637 3.69584L67.0069 8.96811C66.5064 9.1079 66.0508 9.3756 65.6851 9.74488C65.3194 10.1142 65.0562 10.5723 64.9213 11.0742L51.8999 59.2882L73.9038 40.5483L70.7573 36.0635C69.8891 34.6518 69.41 33.2894 69.3198 31.9764C69.2259 30.6573 69.4837 29.4477 70.0932 28.3474C70.7026 27.2472 71.6175 26.3218 72.8379 25.5714C74.0582 24.821 75.295 24.4191 76.5482 24.3657C77.8037 24.3026 78.9963 24.5997 80.126 25.2571C81.2617 25.9107 82.258 26.9344 83.1151 28.3282L87.5735 35.5784L57.2683 60.6732L101.805 45.9551C102.295 45.7914 102.735 45.5034 103.081 45.1191C103.428 44.7348 103.668 44.2673 103.78 43.7623L108.005 24.6361L85.8636 3.68986L85.8637 3.69584Z" fill="#FFF5F8"/>
<path d="M76.5602 38.2859L74.2571 34.777C73.7973 34.0292 73.547 33.334 73.5063 32.6913C73.4679 32.0389 73.6054 31.4515 73.9189 30.9289C74.2346 30.3968 74.6946 29.9449 75.2988 29.5734C75.9089 29.1982 76.5168 28.9934 77.1222 28.9591C77.73 28.9151 78.3103 29.0612 78.8632 29.3972C79.422 29.7295 79.9332 30.2726 80.3967 31.0263L82.0079 33.6464L76.5602 38.2859Z" fill="#FFF5F8"/>
</g>
</svg>
