<svg width="21" height="18" viewBox="0 0 21 18" fill="none" xmlns="http://www.w3.org/2000/svg">
<path d="M19.16 2C18.0937 0.944704 16.6854 0.305271 15.1891 0.197083C13.6928 0.0888936 12.207 0.519074 11 1.41C9.72769 0.463638 8.14402 0.0345119 6.56795 0.209038C4.99188 0.383564 3.54047 1.14878 2.506 2.35059C1.47154 3.55239 0.930854 5.10152 0.992833 6.68601C1.05481 8.27051 1.71485 9.77267 2.84003 10.89L8.84003 16.94C9.40253 17.5018 10.165 17.8174 10.96 17.8174C11.755 17.8174 12.5175 17.5018 13.08 16.94L19.08 10.89C19.671 10.3126 20.142 9.6242 20.466 8.86423C20.79 8.10426 20.9606 7.28775 20.968 6.46163C20.9755 5.63551 20.8196 4.81606 20.5093 4.05038C20.199 3.2847 19.7405 2.58789 19.16 2ZM17.75 9.46L11.75 15.46C11.6571 15.5537 11.5465 15.6281 11.4246 15.6789C11.3027 15.7297 11.172 15.7558 11.04 15.7558C10.908 15.7558 10.7773 15.7297 10.6555 15.6789C10.5336 15.6281 10.423 15.5537 10.33 15.46L4.33003 9.46C3.54579 8.65835 3.10664 7.58147 3.10664 6.46C3.10664 5.33853 3.54579 4.26166 4.33003 3.46C5.12919 2.67099 6.207 2.22857 7.33003 2.22857C8.45306 2.22857 9.53088 2.67099 10.33 3.46C10.423 3.55373 10.5336 3.62812 10.6555 3.67889C10.7773 3.72966 10.908 3.7558 11.04 3.7558C11.172 3.7558 11.3027 3.72966 11.4246 3.67889C11.5465 3.62812 11.6571 3.55373 11.75 3.46C12.5708 2.80689 13.6032 2.47872 14.6505 2.53809C15.6977 2.59746 16.6864 3.04021 17.4281 3.7819C18.1698 4.52359 18.6126 5.51233 18.6719 6.55956C18.7313 7.60679 18.4031 8.63923 17.75 9.46Z" fill="#FFF5F8"/>
</svg>
